<svg xmlns="http://www.w3.org/2000/svg" viewBox="0 0 128 128"><circle cx="64" cy="64" r="42" fill="#fff"/><path fill="#444b54" d="M124 53c-1.7 0-3 1.3-3 3v5h-12.1c-.2-3-.7-6-1.5-8.9-1.8-6.7-5.2-12.7-9.5-17.7l8.6-8.6 3.5 3.5c.6.6 1.4.9 2.1.9s1.5-.3 2.1-.9c1.2-1.2 1.2-3.1 0-4.2l-5.7-5.7-5.7-5.7c-1.2-1.2-3.1-1.2-4.2 0-1.2 1.2-1.2 3.1 0 4.2l3.5 3.5-8.6 8.6C86.3 23.8 77 19.8 67 19.1V7h5c1.7 0 3-1.3 3-3s-1.3-3-3-3H56c-1.7 0-3 1.3-3 3s1.3 3 3 3h5v12.1c-10.2.7-19.4 4.7-26.6 11l-8.6-8.6 3.5-3.5c1.2-1.2 1.2-3.1 0-4.2-1.2-1.2-3.1-1.2-4.2 0l-5.7 5.7-5.7 5.7c-1.2 1.2-1.2 3.1 0 4.2.6.6 1.4.9 2.1.9s1.5-.3 2.1-.9l3.5-3.5 8.6 8.6C23.7 41.7 19.6 51 19 61.1H7v-5c0-1.7-1.3-3-3-3s-3 1.3-3 3v16c0 1.7 1.3 3 3 3s3-1.3 3-3v-5h12.1c.7 9.9 4.5 19.2 11 26.6l-8.6 8.6-3.5-3.7c-1.2-1.2-3.1-1.2-4.2 0-1.2 1.2-1.2 3.1 0 4.2l5.7 5.7 5.7 5.7c.6.6 1.4.9 2.1.9s1.5-.3 2.1-.9c1.2-1.2 1.2-3.1 0-4.2l-3.5-3.5 8.6-8.6c.2.2.5.4.7.6.6.5 1.2.7 1.9.7.9 0 1.7-.4 2.3-1.1 1.1-1.3.9-3.2-.4-4.2-8.9-7.5-14-18.3-14-29.9 0-21.5 17.5-39 39-39 17.5 0 33 11.8 37.6 28.7.9 3.3 1.4 6.8 1.4 10.3 0 1.7 1.3 3 3 3h15v5c0 1.7 1.3 3 3 3s3-1.3 3-3V56c0-1.7-1.3-3-3-3z"/><circle cx="44" cy="64" r="7" fill="#fff"/><path fill="#444b54" d="M44 74c-5.5 0-10-4.5-10-10s4.5-10 10-10 10 4.5 10 10-4.5 10-10 10zm0-14c-2.2 0-4 1.8-4 4s1.8 4 4 4 4-1.8 4-4-1.8-4-4-4z"/><circle cx="64" cy="44" r="7" fill="#fff"/><path fill="#444b54" d="M64 54c-5.5 0-10-4.5-10-10s4.5-10 10-10 10 4.5 10 10-4.5 10-10 10zm0-14c-2.2 0-4 1.8-4 4s1.8 4 4 4 4-1.8 4-4-1.8-4-4-4z"/><path fill="#f9d2d2" d="m72.3 59-28.9 50c-3.8 6.7 1 15 8.7 15h57.7c7.7 0 12.5-8.3 8.7-15L89.7 59c-3.9-6.7-13.5-6.7-17.4 0z"/><path fill="#444b54" d="M81 113c-1.7 0-3-1.3-3-3v-3c0-1.7 1.3-3 3-3s3 1.3 3 3v3c0 1.7-1.3 3-3 3zm0-15c-1.7 0-3-1.3-3-3V75c0-1.7 1.3-3 3-3s3 1.3 3 3v20c0 1.7-1.3 3-3 3z"/></svg>