<svg xmlns="http://www.w3.org/2000/svg" viewBox="0 0 128 128"><path fill="#f9d2d2" d="M43.1 127c-4.7 0-8.9-2.4-11.3-6.5-2.3-4.1-2.3-8.9 0-13l28.9-50C63.1 53.4 67.3 51 72 51s8.9 2.4 11.3 6.5l28.9 50c2.3 4.1 2.3 8.9 0 13-2.4 4.1-6.6 6.5-11.3 6.5H43.1z"/><path fill="#444b54" d="M72 113c-1.7 0-3-1.3-3-3v-3c0-1.7 1.3-3 3-3s3 1.3 3 3v3c0 1.7-1.3 3-3 3zm0-15c-1.7 0-3-1.3-3-3V75c0-1.7 1.3-3 3-3s3 1.3 3 3v20c0 1.7-1.3 3-3 3z"/><path fill="#fff" d="M28 21.5V11c0-3.9 3.1-7 7-7s7 3.1 7 7v80.5c5.9 2.7 10 8.6 10 15.5 0 9.4-7.6 17-17 17s-17-7.6-17-17c0-6.9 4.1-12.8 10-15.5v-70z"/><path fill="#444b54" d="M28 44.5c-1.7 0-3-1.3-3-3v-5c0-1.7 1.3-3 3-3s3 1.3 3 3v5c0 1.7-1.3 3-3 3zm0 20c-1.7 0-3-1.3-3-3v-5c0-1.7 1.3-3 3-3s3 1.3 3 3v5c0 1.7-1.3 3-3 3z"/><path fill="#444b54" d="M35 127c-11 0-20-9-20-20 0-7.2 3.9-13.8 10-17.3V76.5c0-1.7 1.3-3 3-3s3 1.3 3 3v14.9c0 1.2-.6 2.3-1.8 2.8-5 2.3-8.2 7.3-8.2 12.8 0 7.7 6.3 14 14 14s14-6.3 14-14c0-5.5-3.2-10.5-8.2-12.8-.7-.3-1.3-1-1.6-1.7-.2-.4-.2-.7-.2-1.1V11c0-2.2-1.8-4-4-4s-4 1.8-4 4v10.5c0 1.7-1.3 3-3 3s-3-1.3-3-3V11c0-5.5 4.5-10 10-10s10 4.5 10 10v78.7c6.1 3.5 10 10.1 10 17.3 0 11-9 20-20 20z"/></svg>