<svg xmlns="http://www.w3.org/2000/svg" viewBox="0 0 128 128"><path fill="#e8e8f9" d="M33.7 99C46 115.9 60.2 123 64 123h.1c7 0 49.9-25.6 49.9-90.8 0-2-1-3.8-2.8-4.6L64.1 4H64L33.7 99z"/><path fill="#fff" d="M14.1 32.2c0 30.6 9.1 52.3 19.7 66.8H54c5.5 0 10-4.5 10-10V4L16.8 27.6c-1.7.9-2.7 2.7-2.7 4.6z"/><path fill="#444b54" d="M64.1 126c-6 0-23.1-9.9-35.8-29.6-.9-1.4-.5-3.2.9-4.1 1.4-.9 3.3-.5 4.1.9C46.1 113 61.6 120 64 120c2 0 13.7-5.3 25.4-19.9C99.2 87.7 111 65.9 111 32.2c0-.9-.4-1.6-1.1-1.9l-45-22.5c-.6-.3-1.2-.3-1.8 0L18.2 30.3c-.7.3-1.1 1-1.1 1.8 0 4.9.2 9.8.7 14.5.2 1.6-1 3.1-2.7 3.3-1.6.2-3.1-1-3.3-2.7-.5-4.9-.8-10-.8-15.1 0-3.1 1.7-5.8 4.4-7.2l45-22.5c2.2-1.1 4.9-1.1 7.2 0l45 22.5c2.7 1.4 4.4 4.2 4.4 7.3 0 35.4-12.5 58.5-23 71.7C82.5 118.3 69.2 126 64.1 126z"/><path fill="#444b54" d="M21.9 80.1c-1.2 0-2.3-.7-2.8-1.9-1.3-3.3-2.4-6.7-3.4-10.2-.4-1.6.5-3.3 2.1-3.7 1.6-.4 3.2.5 3.7 2.1.9 3.3 2 6.5 3.2 9.6.6 1.5-.2 3.3-1.7 3.9-.4.1-.8.2-1.1.2z"/><circle cx="64" cy="57" r="15" fill="#fff"/><circle cx="67" cy="60" r="4" fill="#444b54"/><path fill="#444b54" d="M88 54h-6.3c-.5-2.7-1.5-5.2-3.1-7.4l4.7-4.7c1.2-1.2 1.2-3.1 0-4.2-1.2-1.2-3.1-1.2-4.2 0l-4.7 4.7c-2.2-1.5-4.7-2.6-7.4-3.1V33c0-1.7-1.3-3-3-3s-3 1.3-3 3v6.3c-2.7.5-5.2 1.5-7.4 3.1l-4.7-4.7c-1.2-1.2-3.1-1.2-4.2 0-1.2 1.2-1.2 3.1 0 4.2l4.7 4.7c-1.5 2.2-2.6 4.7-3.1 7.4H40c-1.7 0-3 1.3-3 3s1.3 3 3 3h6.3c.5 2.7 1.5 5.2 3.1 7.4l-4.7 4.7c-1.2 1.2-1.2 3.1 0 4.2.6.6 1.4.9 2.1.9.8 0 1.5-.3 2.1-.9l4.7-4.7c2.2 1.5 4.7 2.6 7.4 3.1V81c0 1.7 1.3 3 3 3s3-1.3 3-3v-6.3c2.7-.5 5.2-1.5 7.4-3.1l4.7 4.7c.6.6 1.4.9 2.1.9s1.5-.3 2.1-.9c1.2-1.2 1.2-3.1 0-4.2l-4.7-4.7c1.5-2.2 2.6-4.7 3.1-7.4H88c1.7 0 3-1.3 3-3s-1.3-3-3-3zM64 69c-6.6 0-12-5.4-12-12s5.4-12 12-12 12 5.4 12 12-5.4 12-12 12z"/></svg>