<svg xmlns="http://www.w3.org/2000/svg" viewBox="0 0 128 128"><circle cx="64" cy="78" r="10" fill="#e8e8f9"/><circle cx="40" cy="46" r="10" fill="#e8e8f9"/><path fill="#e8e8f9" d="M4 124v-16c0-4.4 3.6-8 8-8h16c4.4 0 8 3.6 8 8v16H4z"/><circle cx="20" cy="78" r="10" fill="#e8e8f9"/><path fill="#e8e8f9" d="M48 124v-16c0-4.4 3.6-8 8-8h16c4.4 0 8 3.6 8 8v16H48zm44 0v-16c0-4.4 3.6-8 8-8h16c4.4 0 8 3.6 8 8v16H92z"/><path fill="#444b54" d="M64 91c-7.2 0-13-5.8-13-13 0-2.5.7-5 2.1-7.1.9-1.4 2.8-1.8 4.1-.9 1.4.9 1.8 2.8.9 4.1-.7 1.2-1.1 2.5-1.1 3.9 0 3.9 3.1 7 7 7 1.3 0 2.6-.4 3.7-1 1.4-.9 3.3-.4 4.1 1 .9 1.4.4 3.3-1 4.1-2 1.2-4.4 1.9-6.8 1.9zm60 20c-1.7 0-3-1.3-3-3 0-2.8-2.2-5-5-5-1.7 0-3-1.3-3-3s1.3-3 3-3c6.1 0 11 4.9 11 11 0 1.7-1.3 3-3 3zm-32 16c-1.7 0-3-1.3-3-3v-16c0-1.7 1.3-3 3-3s3 1.3 3 3v16c0 1.7-1.3 3-3 3z"/><circle cx="108" cy="78" r="10" fill="#e8e8f9"/><path fill="#444b54" d="M40 59c-7.2 0-13-5.8-13-13 0-1.7 1.3-3 3-3s3 1.3 3 3c0 3.9 3.1 7 7 7 1.7 0 3 1.3 3 3s-1.3 3-3 3z"/><circle cx="84" cy="46" r="10" fill="#e8e8f9"/><circle cx="60" cy="14" r="10" fill="#e8e8f9"/><path fill="#444b54" d="M36 127c-1.7 0-3-1.3-3-3v-16c0-2.8-2.2-5-5-5H12c-2.8 0-5 2.2-5 5v16c0 1.7-1.3 3-3 3s-3-1.3-3-3v-16c0-6.1 4.9-11 11-11h16c6.1 0 11 4.9 11 11v16c0 1.7-1.3 3-3 3zM20 91c-7.2 0-13-5.8-13-13s5.8-13 13-13 13 5.8 13 13-5.8 13-13 13zm0-20c-3.9 0-7 3.1-7 7s3.1 7 7 7 7-3.1 7-7-3.1-7-7-7zm60 56c-1.7 0-3-1.3-3-3v-16c0-2.8-2.2-5-5-5H56c-2.8 0-5 2.2-5 5v16c0 1.7-1.3 3-3 3s-3-1.3-3-3v-16c0-6.1 4.9-11 11-11h16c6.1 0 11 4.9 11 11v16c0 1.7-1.3 3-3 3zm28-36c-7.2 0-13-5.8-13-13s5.8-13 13-13 13 5.8 13 13-5.8 13-13 13zm0-20c-3.9 0-7 3.1-7 7s3.1 7 7 7 7-3.1 7-7-3.1-7-7-7zM84 59c-7.2 0-13-5.8-13-13s5.8-13 13-13 13 5.8 13 13-5.8 13-13 13zm0-20c-3.9 0-7 3.1-7 7s3.1 7 7 7 7-3.1 7-7-3.1-7-7-7zM60 27c-7.2 0-13-5.8-13-13S52.8 1 60 1s13 5.8 13 13-5.8 13-13 13zm0-20c-3.9 0-7 3.1-7 7s3.1 7 7 7 7-3.1 7-7-3.1-7-7-7zm64 120c-.8 0-1.5-.3-2.1-.9l-110-110c-1.2-1.2-1.2-3.1 0-4.2 1.2-1.2 3.1-1.2 4.2 0l110 110c1.2 1.2 1.2 3.1 0 4.2-.6.6-1.3.9-2.1.9z"/></svg>