<svg xmlns="http://www.w3.org/2000/svg" viewBox="0 0 128 128"><path fill="#444b54" d="M109 111c-1.7 0-3 1.3-3 3v10c0 1.7 1.3 3 3 3s3-1.3 3-3v-10c0-1.7-1.3-3-3-3zm17.1-94.1-15-15c-1.2-1.2-3.1-1.2-4.2 0l-15 15c-1.2 1.2-1.2 3.1 0 4.2 1.2 1.2 3.1 1.2 4.2 0l9.9-9.9V94c0 1.7 1.3 3 3 3s3-1.3 3-3V11.2l9.9 9.9c.6.6 1.4.9 2.1.9s1.5-.3 2.1-.9c1.2-1.2 1.2-3 0-4.2zM84 51c-1.7 0-3 1.3-3 3v70c0 1.7 1.3 3 3 3s3-1.3 3-3V54c0-1.7-1.3-3-3-3z"/><circle cx="34" cy="94" r="21" fill="#fff"/><circle cx="39" cy="89" r="4" fill="#444b54"/><circle cx="29" cy="99" r="4" fill="#444b54"/><path fill="#444b54" d="M64 91h-6.2c-.5-4.4-2.3-8.4-4.9-11.7l4.4-4.4c1.2-1.2 1.2-3.1 0-4.2-1.2-1.2-3.1-1.2-4.2 0l-4.4 4.4c-3.3-2.6-7.3-4.3-11.7-4.9V64c0-1.7-1.3-3-3-3s-3 1.3-3 3v6.2c-4.4.5-8.4 2.3-11.7 4.9l-4.4-4.4c-1.2-1.2-3.1-1.2-4.2 0-1.2 1.2-1.2 3.1 0 4.2l4.4 4.4c-2.6 3.3-4.3 7.3-4.9 11.7H4c-1.7 0-3 1.3-3 3s1.3 3 3 3h6.2c.5 4.4 2.3 8.4 4.9 11.7l-4.4 4.4c-1.2 1.2-1.2 3.1 0 4.2.6.6 1.4.9 2.1.9s1.5-.3 2.1-.9l4.4-4.4c3.3 2.6 7.3 4.3 11.7 4.9v6.2c0 1.7 1.3 3 3 3s3-1.3 3-3v-6.2c4.4-.5 8.4-2.3 11.7-4.9l4.4 4.4c.6.6 1.4.9 2.1.9s1.5-.3 2.1-.9c1.2-1.2 1.2-3.1 0-4.2l-4.4-4.4c2.6-3.3 4.3-7.3 4.9-11.7H64c1.7 0 3-1.3 3-3s-1.3-3-3-3zm-30 21c-9.9 0-18-8.1-18-18s8.1-18 18-18 18 8.1 18 18-8.1 18-18 18z"/></svg>