<svg xmlns="http://www.w3.org/2000/svg" viewBox="0 0 128 128"><path fill="#c7c3f4" d="M80 124c-8.3 0-15-6.7-15-15V24h30v85c0 8.3-6.7 15-15 15z"/><path fill="#fff" d="M71 74c-1.7 0-3-1.3-3-3V46c0-1.7 1.3-3 3-3s3 1.3 3 3v25c0 1.7-1.3 3-3 3zm0 30c-1.7 0-3-1.3-3-3V91c0-1.7 1.3-3 3-3s3 1.3 3 3v10c0 1.7-1.3 3-3 3zM59 4h42v20H59z"/><path fill="#444b54" d="M80 127c-9.9 0-18-8.1-18-18V36c0-1.7 1.3-3 3-3s3 1.3 3 3v73c0 6.6 5.4 12 12 12s12-5.4 12-12V36c0-1.7 1.3-3 3-3s3 1.3 3 3v73c0 9.9-8.1 18-18 18zM101 1H59c-1.7 0-3 1.3-3 3v20c0 1.7 1.3 3 3 3h42c1.7 0 3-1.3 3-3V4c0-1.7-1.3-3-3-3zm-3 20H62V7h8v4c0 1.7 1.3 3 3 3s3-1.3 3-3V7h8v4c0 1.7 1.3 3 3 3s3-1.3 3-3V7h8v14z"/><path fill="#fff" d="M26 54c-3.9 0-7-3.1-7-7V31c0-3.9 3.1-7 7-7s7 3.1 7 7v16c0 3.9-3.1 7-7 7z"/><path fill="#444b54" d="M26 21c-5.5 0-10 4.5-10 10v16c0 4.5 2.9 8.3 7 9.5v67.7c0 1.7 1.3 3 3 3s3-1.3 3-3V56.5c4.1-1.3 7-5.1 7-9.5V31c0-5.5-4.5-10-10-10zm4 26c0 2.2-1.8 4-4 4s-4-1.8-4-4V31c0-2.2 1.8-4 4-4s4 1.8 4 4v16z"/></svg>